<svg xmlns="http://www.w3.org/2000/svg" viewBox="0 0 512 512"><defs><style>.cls-1{fill:#ee9816;}.cls-2{fill:#3d59a1;}</style></defs><g id="Text"><rect class="cls-1" x="125.56" y="43.21" width="62.27" height="180.8"/><rect class="cls-1" x="206.72" y="43.21" width="62.27" height="143.01"/><rect class="cls-1" x="287.46" y="43.21" width="62.27" height="62.27"/><rect class="cls-1" x="327.61" y="287.99" width="62.27" height="180.8" transform="translate(717.49 756.78) rotate(180)"/><rect class="cls-1" x="246.44" y="325.78" width="62.27" height="143.01" transform="translate(555.16 794.57) rotate(180)"/><rect class="cls-1" x="165.71" y="406.52" width="62.27" height="62.27" transform="translate(393.69 875.31) rotate(180)"/><rect class="cls-2" x="103.01" y="267.17" width="62.27" height="180.8" transform="translate(-223.42 491.71) rotate(-90)"/><rect class="cls-2" x="84.11" y="204.9" width="62.27" height="143.01" transform="translate(-161.15 391.65) rotate(-90)"/><rect class="cls-2" x="43.75" y="164.53" width="62.27" height="62.27" transform="translate(-120.78 270.54) rotate(-90)"/><rect class="cls-2" x="346.72" y="64.25" width="62.27" height="180.8" transform="translate(532.51 -223.2) rotate(90)"/><rect class="cls-2" x="365.62" y="164.31" width="62.27" height="143.01" transform="translate(632.57 -160.93) rotate(90)"/><rect class="cls-2" x="405.98" y="285.42" width="62.27" height="62.27" transform="translate(753.67 -120.57) rotate(90)"/></g></svg>