<svg xmlns="http://www.w3.org/2000/svg" viewBox="0 0 1054.98 327.44"><defs><style>.cls-1{fill:#ee9816;}.cls-2{fill:#3d59a1;}</style></defs><g id="Text"><rect class="cls-1" x="88.68" y="80.97" width="24.22" height="70.31"/><rect class="cls-1" x="120.25" y="80.97" width="24.22" height="55.61"/><rect class="cls-1" x="151.64" y="80.97" width="24.22" height="24.22"/><rect class="cls-1" x="167.26" y="176.16" width="24.22" height="70.31" transform="translate(358.74 422.64) rotate(180)"/><rect class="cls-1" x="135.69" y="190.86" width="24.22" height="55.61" transform="translate(295.61 437.33) rotate(180)"/><rect class="cls-1" x="104.3" y="222.26" width="24.22" height="24.22" transform="translate(232.81 468.73) rotate(180)"/><rect class="cls-2" x="79.91" y="168.06" width="24.22" height="70.31" transform="translate(-111.2 295.24) rotate(-90)"/><rect class="cls-2" x="72.57" y="143.85" width="24.22" height="55.61" transform="translate(-86.98 256.33) rotate(-90)"/><rect class="cls-2" x="56.87" y="128.15" width="24.22" height="24.22" transform="translate(-71.28 209.23) rotate(-90)"/><rect class="cls-2" x="174.69" y="89.15" width="24.22" height="70.31" transform="translate(311.11 -62.49) rotate(90)"/><rect class="cls-2" x="182.04" y="128.06" width="24.22" height="55.61" transform="translate(350.02 -38.28) rotate(90)"/><rect class="cls-2" x="197.74" y="175.16" width="24.22" height="24.22" transform="translate(397.12 -22.58) rotate(90)"/><polygon class="cls-1" points="365.79 111.66 365.79 215.58 386.89 215.58 386.89 134.87 389.18 134.87 409.75 211.36 430.68 211.36 451.07 135.04 453.54 135.04 453.54 215.58 474.11 215.58 474.11 111.66 438.41 111.66 419.95 186.74 401.66 111.66 365.79 111.66"/><path class="cls-1" d="M574.16,139.27v76h19.61V164.59a90.11,90.11,0,0,1,24.18-7V137.77s-13.81,1.76-24.36,10.2l.18-8.79Z"/><path class="cls-2" d="M974.73,111.66H934.81L911.6,215.22h21.45l3.87-19H972.8l4.05,19h21.26Zm-34.12,67,10-49.95h9l9.85,49.95Z"/><path class="cls-2" d="M742.6,113.66a44.2,44.2,0,0,0-13.52-2H687.94V215.05h43.31a37.34,37.34,0,0,0,16-3.45c9-4.28,19.68-13.83,19.68-35.06v-33S766,121.18,742.6,113.66Zm3,36.78V172a40.53,40.53,0,0,1-1.68,12.27,18.61,18.61,0,0,1-17.75,12.88H708.91v-67.5h21C747.63,129.61,745.57,150.44,745.57,150.44Z"/><path class="cls-1" d="M346.45,113.59l-1.23,16.18L310,128.46a13.35,13.35,0,0,0-8.15,2.3,9.28,9.28,0,0,0-4.24,7.8c0,8.27,9.15,10.38,9.15,10.38L331,157.55s15.65,5.45,16.53,18.64v15.48s-.23,13.81-15.12,21.25a34.45,34.45,0,0,1-18.89,3.28l-35.44-3.61,1.75-16.18,33,2.82s13.63.88,15.39-10.9c0,0,3.52-13.19-18.81-16.53,0,0-28.32-5.1-31.3-23.57,0,0-2.29-11.95,1.58-22.15s18.81-16,21.27-16.36,2.41-1.46,22.16.44c11.16,1.08,23.39,3.43,23.39,3.43Z"/><path class="cls-2" d="M866,117.2h20.66v22h18.55v17.23H886.52v36.14s-.26,5.8,4,6.15,14.68,0,14.68,0v16.35s-20.66,6.69-31.56-1.84c0,0-7.3-4.49-7.65-22.69v-34l-8.26-.09V139.18l8.08.17Z"/><path class="cls-1" d="M634,117.2H654.7v22h18.55v17.23H654.61v36.14s-.26,5.8,4,6.15,14.68,0,14.68,0v16.35s-20.66,6.69-31.56-1.84c0,0-7.3-4.49-7.65-22.69v-34l-8.27-.09V139.18l8.09.17Z"/><path class="cls-1" d="M553.41,194V156.77c-1.58-16.75-17.67-19-17.67-19-19.65-2.64-40.09,4-40.09,4V156.5l29.08-1.85c9.31.67,9,5.93,9,5.93v7.92c-32-.79-37.32,7-37.32,7-11.86,11.08-2.37,33-2.37,33,12.79,20.31,42.59,3,42.59,3,4.75,7.51,22.34,5.84,22.34,5.84V202.09C552.85,202,553.41,194,553.41,194Zm-19.26,5.18s-19.38,5.16-22.68-2.37,2.86-14.24,7.79-14.77,14.89,0,14.89,0Z"/><path class="cls-2" d="M842.13,194V156.77c-1.57-16.75-17.66-19-17.66-19-19.65-2.64-40.09,4-40.09,4V156.5l29.08-1.85c9.3.67,9,5.93,9,5.93v7.92c-32-.79-37.33,7-37.33,7-11.86,11.08-2.37,33-2.37,33,12.79,20.31,42.6,3,42.6,3,4.75,7.51,22.33,5.84,22.33,5.84V202.09C841.57,202,842.13,194,842.13,194Zm-19.25,5.18s-19.38,5.16-22.69-2.37,2.87-14.24,7.79-14.77,14.9,0,14.9,0Z"/></g></svg>